<?xml version="1.0" encoding="UTF-8" standalone="no"?>
<!DOCTYPE svg PUBLIC "-//W3C//DTD SVG 1.1//EN"
 "http://www.w3.org/Graphics/SVG/1.1/DTD/svg11.dtd">
<!-- Generated by graphviz version 2.40.1 (20161225.0304)
 -->
<!-- Title: dependencies Pages: 1 -->
<svg width="2317pt" height="284pt"
 viewBox="0.00 0.00 2317.00 284.00" xmlns="http://www.w3.org/2000/svg" xmlns:xlink="http://www.w3.org/1999/xlink">
<g id="graph0" class="graph" transform="scale(1 1) rotate(0) translate(4 280)">
<title>dependencies</title>
<polygon fill="#ffffff" stroke="transparent" points="-4,4 -4,-280 2313,-280 2313,4 -4,4"/>
<text text-anchor="start" x="1133.5091" y="-42.4" font-family="sans-serif" font-weight="bold" font-size="14.00" fill="#000000">Legend</text>
<polygon fill="#ffffb3" stroke="transparent" points="920.5,-10 920.5,-30 940.5,-30 940.5,-10 920.5,-10"/>
<text text-anchor="start" x="944.129" y="-15.4" font-family="sans-serif" font-size="14.00" fill="#000000"> &#160;Declarations</text>
<polygon fill="#8dd3c7" stroke="transparent" points="1033.5,-10 1033.5,-30 1053.5,-30 1053.5,-10 1033.5,-10"/>
<text text-anchor="start" x="1057.2251" y="-15.4" font-family="sans-serif" font-size="14.00" fill="#000000"> &#160;Module</text>
<polygon fill="#80b1d3" stroke="transparent" points="1119.5,-10 1119.5,-30 1139.5,-30 1139.5,-10 1119.5,-10"/>
<text text-anchor="start" x="1143.2812" y="-15.4" font-family="sans-serif" font-size="14.00" fill="#000000"> &#160;Bootstrap</text>
<polygon fill="#fdb462" stroke="transparent" points="1216.5,-10 1216.5,-30 1236.5,-30 1236.5,-10 1216.5,-10"/>
<text text-anchor="start" x="1240.1732" y="-15.4" font-family="sans-serif" font-size="14.00" fill="#000000"> &#160;Providers</text>
<polygon fill="#fb8072" stroke="transparent" points="1312.5,-10 1312.5,-30 1332.5,-30 1332.5,-10 1312.5,-10"/>
<text text-anchor="start" x="1336.2258" y="-15.4" font-family="sans-serif" font-size="14.00" fill="#000000"> &#160;Exports</text>
<g id="clust1" class="cluster">
<title>cluster_AppModule</title>
<polygon fill="none" stroke="#000000" stroke-dasharray="1,5" points="8,-70 8,-268 2301,-268 2301,-70 8,-70"/>
</g>
<g id="clust2" class="cluster">
<title>cluster_AppModule_declarations</title>
<polygon fill="none" stroke="#000000" points="724,-78 724,-130 2293,-130 2293,-78 724,-78"/>
</g>
<g id="clust13" class="cluster">
<title>cluster_AppModule_imports</title>
<polygon fill="none" stroke="#000000" points="572,-78 572,-130 716,-130 716,-78 572,-78"/>
</g>
<g id="clust15" class="cluster">
<title>cluster_AppModule_bootstrap</title>
<polygon fill="none" stroke="#000000" points="1149,-208 1149,-260 1273,-260 1273,-208 1149,-208"/>
</g>
<g id="clust16" class="cluster">
<title>cluster_AppModule_providers</title>
<polygon fill="none" stroke="#000000" points="16,-78 16,-130 564,-130 564,-78 16,-78"/>
</g>
<!-- AboutComponent -->
<g id="node1" class="node">
<title>AboutComponent</title>
<polygon fill="#ffffb3" stroke="#000000" points="2285.3301,-122 2168.6699,-122 2168.6699,-86 2285.3301,-86 2285.3301,-122"/>
<text text-anchor="middle" x="2227" y="-99.8" font-family="Times,serif" font-size="14.00" fill="#000000">AboutComponent</text>
</g>
<!-- AppModule -->
<g id="node11" class="node">
<title>AppModule</title>
<polygon fill="#8dd3c7" stroke="#000000" points="1252.6571,-187 1249.6571,-191 1228.6571,-191 1225.6571,-187 1169.3429,-187 1169.3429,-151 1252.6571,-151 1252.6571,-187"/>
<text text-anchor="middle" x="1211" y="-164.8" font-family="Times,serif" font-size="14.00" fill="#000000">AppModule</text>
</g>
<!-- AboutComponent&#45;&gt;AppModule -->
<g id="edge1" class="edge">
<title>AboutComponent&#45;&gt;AppModule</title>
<path fill="none" stroke="#000000" d="M2227,-122.0908C2227,-145.1328 2227,-182 2227,-182 2227,-182 1262.7226,-182 1262.7226,-182"/>
<polygon fill="#000000" stroke="#000000" points="1262.7226,-178.5001 1252.7226,-182 1262.7225,-185.5001 1262.7226,-178.5001"/>
</g>
<!-- AppComponent -->
<g id="node2" class="node">
<title>AppComponent</title>
<polygon fill="#ffffb3" stroke="#000000" points="2150.9399,-122 2045.0601,-122 2045.0601,-86 2150.9399,-86 2150.9399,-122"/>
<text text-anchor="middle" x="2098" y="-99.8" font-family="Times,serif" font-size="14.00" fill="#000000">AppComponent</text>
</g>
<!-- AppComponent&#45;&gt;AppModule -->
<g id="edge2" class="edge">
<title>AppComponent&#45;&gt;AppModule</title>
<path fill="none" stroke="#000000" d="M2098,-122.0449C2098,-143.6623 2098,-177 2098,-177 2098,-177 1262.8882,-177 1262.8882,-177"/>
<polygon fill="#000000" stroke="#000000" points="1262.8882,-173.5001 1252.8882,-177 1262.8881,-180.5001 1262.8882,-173.5001"/>
</g>
<!-- LogInComponent -->
<g id="node3" class="node">
<title>LogInComponent</title>
<polygon fill="#ffffb3" stroke="#000000" points="2027.5465,-122 1912.4535,-122 1912.4535,-86 2027.5465,-86 2027.5465,-122"/>
<text text-anchor="middle" x="1970" y="-99.8" font-family="Times,serif" font-size="14.00" fill="#000000">LogInComponent</text>
</g>
<!-- LogInComponent&#45;&gt;AppModule -->
<g id="edge3" class="edge">
<title>LogInComponent&#45;&gt;AppModule</title>
<path fill="none" stroke="#000000" d="M1970,-122.2228C1970,-142.3652 1970,-172 1970,-172 1970,-172 1262.8883,-172 1262.8883,-172"/>
<polygon fill="#000000" stroke="#000000" points="1262.8883,-168.5001 1252.8883,-172 1262.8882,-175.5001 1262.8883,-168.5001"/>
</g>
<!-- MovieBrowserComponent -->
<g id="node4" class="node">
<title>MovieBrowserComponent</title>
<polygon fill="#ffffb3" stroke="#000000" points="1894.8061,-122 1729.1939,-122 1729.1939,-86 1894.8061,-86 1894.8061,-122"/>
<text text-anchor="middle" x="1812" y="-99.8" font-family="Times,serif" font-size="14.00" fill="#000000">MovieBrowserComponent</text>
</g>
<!-- MovieBrowserComponent&#45;&gt;AppModule -->
<g id="edge4" class="edge">
<title>MovieBrowserComponent&#45;&gt;AppModule</title>
<path fill="none" stroke="#000000" d="M1812,-122.2222C1812,-140.8285 1812,-167 1812,-167 1812,-167 1262.784,-167 1262.784,-167"/>
<polygon fill="#000000" stroke="#000000" points="1262.784,-163.5001 1252.784,-167 1262.784,-170.5001 1262.784,-163.5001"/>
</g>
<!-- MovieDetailsComponent -->
<g id="node5" class="node">
<title>MovieDetailsComponent</title>
<polygon fill="#ffffb3" stroke="#000000" points="1711.5351,-122 1554.4649,-122 1554.4649,-86 1711.5351,-86 1711.5351,-122"/>
<text text-anchor="middle" x="1633" y="-99.8" font-family="Times,serif" font-size="14.00" fill="#000000">MovieDetailsComponent</text>
</g>
<!-- MovieDetailsComponent&#45;&gt;AppModule -->
<g id="edge5" class="edge">
<title>MovieDetailsComponent&#45;&gt;AppModule</title>
<path fill="none" stroke="#000000" d="M1633,-122.0336C1633,-139.0597 1633,-162 1633,-162 1633,-162 1263.0058,-162 1263.0058,-162"/>
<polygon fill="#000000" stroke="#000000" points="1263.0058,-158.5001 1253.0058,-162 1263.0057,-165.5001 1263.0058,-158.5001"/>
</g>
<!-- NavBarComponent -->
<g id="node6" class="node">
<title>NavBarComponent</title>
<polygon fill="#ffffb3" stroke="#000000" points="1536.3655,-122 1411.6345,-122 1411.6345,-86 1536.3655,-86 1536.3655,-122"/>
<text text-anchor="middle" x="1474" y="-99.8" font-family="Times,serif" font-size="14.00" fill="#000000">NavBarComponent</text>
</g>
<!-- NavBarComponent&#45;&gt;AppModule -->
<g id="edge6" class="edge">
<title>NavBarComponent&#45;&gt;AppModule</title>
<path fill="none" stroke="#000000" d="M1474,-122.2396C1474,-137.5706 1474,-157 1474,-157 1474,-157 1262.6731,-157 1262.6731,-157"/>
<polygon fill="#000000" stroke="#000000" points="1262.6732,-153.5001 1252.6731,-157 1262.6731,-160.5001 1262.6732,-153.5001"/>
</g>
<!-- PasswordRecoveryComponent -->
<g id="node7" class="node">
<title>PasswordRecoveryComponent</title>
<polygon fill="#ffffb3" stroke="#000000" points="1393.1274,-122 1204.8726,-122 1204.8726,-86 1393.1274,-86 1393.1274,-122"/>
<text text-anchor="middle" x="1299" y="-99.8" font-family="Times,serif" font-size="14.00" fill="#000000">PasswordRecoveryComponent</text>
</g>
<!-- PasswordRecoveryComponent&#45;&gt;AppModule -->
<g id="edge7" class="edge">
<title>PasswordRecoveryComponent&#45;&gt;AppModule</title>
<path fill="none" stroke="#000000" d="M1228.7573,-122.1061C1228.7573,-122.1061 1228.7573,-140.991 1228.7573,-140.991"/>
<polygon fill="#000000" stroke="#000000" points="1225.2574,-140.9909 1228.7573,-150.991 1232.2574,-140.991 1225.2574,-140.9909"/>
</g>
<!-- RegisterComponent -->
<g id="node8" class="node">
<title>RegisterComponent</title>
<polygon fill="#ffffb3" stroke="#000000" points="1186.9846,-122 1059.0154,-122 1059.0154,-86 1186.9846,-86 1186.9846,-122"/>
<text text-anchor="middle" x="1123" y="-99.8" font-family="Times,serif" font-size="14.00" fill="#000000">RegisterComponent</text>
</g>
<!-- RegisterComponent&#45;&gt;AppModule -->
<g id="edge8" class="edge">
<title>RegisterComponent&#45;&gt;AppModule</title>
<path fill="none" stroke="#000000" d="M1178.0821,-122.1061C1178.0821,-122.1061 1178.0821,-140.991 1178.0821,-140.991"/>
<polygon fill="#000000" stroke="#000000" points="1174.5821,-140.9909 1178.0821,-150.991 1181.5821,-140.991 1174.5821,-140.9909"/>
</g>
<!-- ToWatchComponent -->
<g id="node9" class="node">
<title>ToWatchComponent</title>
<polygon fill="#ffffb3" stroke="#000000" points="1040.9201,-122 907.0799,-122 907.0799,-86 1040.9201,-86 1040.9201,-122"/>
<text text-anchor="middle" x="974" y="-99.8" font-family="Times,serif" font-size="14.00" fill="#000000">ToWatchComponent</text>
</g>
<!-- ToWatchComponent&#45;&gt;AppModule -->
<g id="edge9" class="edge">
<title>ToWatchComponent&#45;&gt;AppModule</title>
<path fill="none" stroke="#000000" d="M974,-122.2396C974,-137.5706 974,-157 974,-157 974,-157 1159.1747,-157 1159.1747,-157"/>
<polygon fill="#000000" stroke="#000000" points="1159.1747,-160.5001 1169.1747,-157 1159.1747,-153.5001 1159.1747,-160.5001"/>
</g>
<!-- UserManagerComponent -->
<g id="node10" class="node">
<title>UserManagerComponent</title>
<polygon fill="#ffffb3" stroke="#000000" points="889.5086,-122 732.4914,-122 732.4914,-86 889.5086,-86 889.5086,-122"/>
<text text-anchor="middle" x="811" y="-99.8" font-family="Times,serif" font-size="14.00" fill="#000000">UserManagerComponent</text>
</g>
<!-- UserManagerComponent&#45;&gt;AppModule -->
<g id="edge10" class="edge">
<title>UserManagerComponent&#45;&gt;AppModule</title>
<path fill="none" stroke="#000000" d="M811,-122.0336C811,-139.0597 811,-162 811,-162 811,-162 1159.325,-162 1159.325,-162"/>
<polygon fill="#000000" stroke="#000000" points="1159.325,-165.5001 1169.325,-162 1159.3249,-158.5001 1159.325,-165.5001"/>
</g>
<!-- AppComponent  -->
<g id="node13" class="node">
<title>AppComponent </title>
<polygon fill="#80b1d3" stroke="#000000" points="1265.439,-252 1156.561,-252 1156.561,-216 1265.439,-216 1265.439,-252"/>
<text text-anchor="middle" x="1211" y="-229.8" font-family="Times,serif" font-size="14.00" fill="#000000">AppComponent </text>
</g>
<!-- AppModule&#45;&gt;AppComponent  -->
<g id="edge12" class="edge">
<title>AppModule&#45;&gt;AppComponent </title>
<path fill="none" stroke="#000000" stroke-dasharray="1,5" d="M1211,-187.1061C1211,-187.1061 1211,-205.991 1211,-205.991"/>
<polygon fill="#000000" stroke="#000000" points="1207.5001,-205.9909 1211,-215.991 1214.5001,-205.991 1207.5001,-205.9909"/>
</g>
<!-- AppRoutingModule -->
<g id="node12" class="node">
<title>AppRoutingModule</title>
<polygon fill="#8dd3c7" stroke="#000000" points="708.2744,-122 705.2744,-126 684.2744,-126 681.2744,-122 579.7256,-122 579.7256,-86 708.2744,-86 708.2744,-122"/>
<text text-anchor="middle" x="644" y="-99.8" font-family="Times,serif" font-size="14.00" fill="#000000">AppRoutingModule</text>
</g>
<!-- AppRoutingModule&#45;&gt;AppModule -->
<g id="edge11" class="edge">
<title>AppRoutingModule&#45;&gt;AppModule</title>
<path fill="none" stroke="#000000" d="M644,-122.2222C644,-140.8285 644,-167 644,-167 644,-167 1159.3071,-167 1159.3071,-167"/>
<polygon fill="#000000" stroke="#000000" points="1159.3072,-170.5001 1169.3071,-167 1159.3071,-163.5001 1159.3072,-170.5001"/>
</g>
<!-- FirebaseAuthService -->
<g id="node14" class="node">
<title>FirebaseAuthService</title>
<ellipse fill="#fdb462" stroke="#000000" cx="464" cy="-104" rx="92.0296" ry="18"/>
<text text-anchor="middle" x="464" y="-99.8" font-family="Times,serif" font-size="14.00" fill="#000000">FirebaseAuthService</text>
</g>
<!-- FirebaseAuthService&#45;&gt;AppModule -->
<g id="edge13" class="edge">
<title>FirebaseAuthService&#45;&gt;AppModule</title>
<path fill="none" stroke="#000000" d="M464,-122.2228C464,-142.3652 464,-172 464,-172 464,-172 1159.2374,-172 1159.2374,-172"/>
<polygon fill="#000000" stroke="#000000" points="1159.2374,-175.5001 1169.2374,-172 1159.2374,-168.5001 1159.2374,-175.5001"/>
</g>
<!-- FirebaseDataService -->
<g id="node15" class="node">
<title>FirebaseDataService</title>
<ellipse fill="#fdb462" stroke="#000000" cx="263" cy="-104" rx="90.8627" ry="18"/>
<text text-anchor="middle" x="263" y="-99.8" font-family="Times,serif" font-size="14.00" fill="#000000">FirebaseDataService</text>
</g>
<!-- FirebaseDataService&#45;&gt;AppModule -->
<g id="edge14" class="edge">
<title>FirebaseDataService&#45;&gt;AppModule</title>
<path fill="none" stroke="#000000" d="M263,-122.0449C263,-143.6623 263,-177 263,-177 263,-177 1159.0424,-177 1159.0424,-177"/>
<polygon fill="#000000" stroke="#000000" points="1159.0424,-180.5001 1169.0424,-177 1159.0424,-173.5001 1159.0424,-180.5001"/>
</g>
<!-- MovieService -->
<g id="node16" class="node">
<title>MovieService</title>
<ellipse fill="#fdb462" stroke="#000000" cx="89" cy="-104" rx="65.4072" ry="18"/>
<text text-anchor="middle" x="89" y="-99.8" font-family="Times,serif" font-size="14.00" fill="#000000">MovieService</text>
</g>
<!-- MovieService&#45;&gt;AppModule -->
<g id="edge15" class="edge">
<title>MovieService&#45;&gt;AppModule</title>
<path fill="none" stroke="#000000" d="M89,-122.0908C89,-145.1328 89,-182 89,-182 89,-182 1159.064,-182 1159.064,-182"/>
<polygon fill="#000000" stroke="#000000" points="1159.0641,-185.5001 1169.064,-182 1159.064,-178.5001 1159.0641,-185.5001"/>
</g>
</g>
</svg>
